HIERARCHY
ROOT Hips
{
	OFFSET 0.000000 0.000000 0.000000 
	CHANNELS 6 Xposition Yposition Zposition Zrotation Yrotation Xrotation
	JOINT LeftUpLeg
	{
		OFFSET 1.363060 -1.794630 0.839290 
		CHANNELS 3 Zrotation Yrotation Xrotation
		JOINT LeftLeg
		{
			OFFSET 2.448110 -6.726130 0.000000 
			CHANNELS 3 Zrotation Yrotation Xrotation
			JOINT LeftFoot
			{
				OFFSET 2.562200 -7.039590 0.000000 
				CHANNELS 3 Zrotation Yrotation Xrotation
				JOINT LeftToeBase
				{
					OFFSET 0.157640 -0.433110 2.322550 
					CHANNELS 3 Zrotation Yrotation Xrotation
					End Site
					{
						OFFSET 0.000000 0.000000 0.000000 
					}
				}
			}
		}
	}
	JOINT RightUpLeg
	{
		OFFSET -1.305520 -1.794630 0.839290 
		CHANNELS 3 Zrotation Yrotation Xrotation
		JOINT RightLeg
		{
			OFFSET -2.542530 -6.985550 0.000000 
			CHANNELS 3 Zrotation Yrotation Xrotation
			JOINT RightFoot
			{
				OFFSET -2.568260 -7.056230 0.000000 
				CHANNELS 3 Zrotation Yrotation Xrotation
				JOINT RightToeBase
				{
					OFFSET -0.164730 -0.452590 2.363150 
					CHANNELS 3 Zrotation Yrotation Xrotation
					End Site
					{
						OFFSET 0.000000 0.000000 0.000000 
					}
				}
			}
		}
	}
	JOINT Spine
	{
		OFFSET 0.028270 2.035590 -0.193380 
		CHANNELS 3 Zrotation Yrotation Xrotation
		JOINT Spine1
		{
			OFFSET 0.056720 2.048850 -0.042750 
			CHANNELS 3 Zrotation Yrotation Xrotation
			JOINT Neck1
			{
				OFFSET -0.054170 1.746240 0.172020 
				CHANNELS 3 Zrotation Yrotation Xrotation
				JOINT Head
				{
					OFFSET 0.104070 1.761360 -0.123970 
					CHANNELS 3 Zrotation Yrotation Xrotation
					End Site
					{
						OFFSET 0.000000 0.000000 0.000000 
					}
				}
			}
			JOINT LeftArm
			{
				OFFSET 3.362410 1.200890 -0.311210 
				CHANNELS 3 Zrotation Yrotation Xrotation
				JOINT LeftForeArm
				{
					OFFSET 4.983000 -0.000000 -0.000000 
					CHANNELS 3 Zrotation Yrotation Xrotation
					JOINT LeftHand
					{
						OFFSET 3.483560 -0.000000 -0.000000 
						CHANNELS 3 Zrotation Yrotation Xrotation
						JOINT LeftHandIndex1
						{
							OFFSET 0.715260 -0.000000 -0.000000 
							CHANNELS 3 Zrotation Yrotation Xrotation
							End Site
							{
								OFFSET 0.000000 0.000000 0.000000 
							}
						}
					}
				}
			}
			JOINT RightArm
			{
				OFFSET -3.136600 1.374050 -0.404650 
				CHANNELS 3 Zrotation Yrotation Xrotation
				JOINT RightForeArm
				{
					OFFSET -5.241900 -0.000000 -0.000000 
					CHANNELS 3 Zrotation Yrotation Xrotation
					JOINT RightHand
					{
						OFFSET -3.444170 -0.000000 -0.000000 
						CHANNELS 3 Zrotation Yrotation Xrotation
						JOINT RightHandIndex1
						{
							OFFSET -0.622530 -0.000000 -0.000000 
							CHANNELS 3 Zrotation Yrotation Xrotation
							End Site
							{
								OFFSET 0.000000 0.000000 0.000000 
							}
						}
					}
				}
			}
		}
	}
}
MOTION
Frames: 15
Frame Time: 0.041667
19.854508 18.283863 15.997417 6.360372 -1.100870 5.723176 -22.951623 2.812152 7.149683 -0.099613 1.294334 6.449942 0.918743 -11.699317 15.989567 0.594900 4.937600 13.730800 11.659958 20.701706 -29.348693 -2.508087 -7.482894 24.946541 0.734185 -5.237250 8.702722 -1.356300 -7.372100 20.822500 -3.514794 -7.379774 5.952794 1.671409 -4.093808 1.437384 30.959865 -29.062187 0.910981 8.311500 -14.989100 6.013700 -86.916696 -6.133867 29.109674 33.090167 -38.075254 -12.978451 -0.052501 -1.281845 13.374060 -7.125000 0.000000 0.000000 85.752305 -9.434792 -6.972914 -12.583795 15.891795 -1.994049 -0.174495 -1.085542 30.691957 7.125000 0.000000 0.000000 
19.847975 18.286593 16.180438 5.856731 -1.074744 5.206514 -22.280343 2.568695 6.627042 0.041047 2.296345 9.182393 0.984810 -11.250188 17.085910 0.812100 5.750700 16.062800 12.309516 22.248847 -27.797177 -2.674797 -7.647862 25.624474 1.277485 -7.720984 7.049120 -0.984000 -6.314000 17.698200 -3.087302 -7.470260 6.314616 1.473854 -4.131306 1.552532 31.306170 -29.265064 0.794613 8.456200 -15.136800 6.079800 -86.997624 -5.853611 28.835718 32.939416 -37.949243 -12.860073 -0.070712 -1.278033 13.281172 -7.125000 0.000000 0.000000 85.478240 -8.636014 -6.450303 -12.720493 16.086845 -2.050294 -0.119587 -1.200887 29.970582 7.125000 0.000000 0.000000 
19.852168 18.298684 16.357024 5.469115 -0.962062 4.734045 -21.842561 2.076168 5.513081 0.338537 3.707950 13.150506 1.021520 -11.371535 17.500604 0.589100 4.914000 13.663500 13.018647 22.827808 -26.419341 -2.791602 -7.779245 26.146758 1.631940 -9.243584 5.761668 -0.611600 -5.005200 13.923400 -2.882769 -7.484951 6.505156 1.225394 -4.109521 1.414875 31.454175 -29.503685 0.663514 8.499700 -15.296000 6.062100 -86.992080 -5.590866 28.819360 32.519477 -37.591244 -12.553281 -0.091482 -1.271947 13.274912 -7.125000 0.000000 0.000000 85.468593 -7.870675 -6.928566 -12.933675 16.421682 -2.130384 -0.049271 -1.302147 30.167284 7.125000 0.000000 0.000000 
19.858214 18.298391 16.529709 4.891272 -0.924108 4.523865 -21.146681 2.037345 3.814130 0.752023 5.154744 17.330105 1.090193 -11.212339 18.736608 0.800900 5.712000 15.951100 14.151209 21.904264 -25.910245 -2.857842 -7.900643 26.654181 1.319682 -7.602579 5.454482 -0.428200 -4.199600 11.638900 -2.487971 -7.500357 6.593301 0.963238 -4.087037 1.311981 31.160813 -29.561522 0.536738 8.383800 -15.335400 5.929600 -87.022255 -5.439336 28.689881 31.897798 -37.044281 -12.095377 -0.119608 -1.265775 13.472862 -7.125000 0.000000 0.000000 85.415032 -7.233324 -6.542901 -13.297126 16.952085 -2.256784 0.025322 -1.299212 29.476614 7.125000 0.000000 0.000000 
19.845245 18.286106 16.690206 3.716321 -1.138773 4.366854 -19.763618 2.432289 1.892942 1.207764 6.459034 21.142232 1.205503 -10.676113 20.528425 1.010900 6.397300 17.941700 16.052999 21.101244 -25.426112 -2.927963 -7.982621 27.107529 1.019569 -5.980625 5.234572 -0.175800 -2.701200 7.448000 -1.520341 -7.560594 6.757543 0.779948 -4.086947 1.272756 30.708174 -29.504574 0.474558 8.239100 -15.303400 5.790200 -87.229570 -5.261884 28.085784 31.341482 -36.542013 -11.674215 -0.147425 -1.269589 13.620216 -7.125000 0.000000 0.000000 85.171969 -6.628463 -5.274701 -13.746052 17.588502 -2.416948 0.062229 -1.219481 27.996270 7.125000 0.000000 0.000000 
19.829547 18.255391 16.846900 2.906953 -1.179244 4.237109 -18.709993 3.076770 -0.028200 1.726189 7.639250 24.737642 1.342513 -10.509499 22.519788 0.780000 5.638600 15.739300 17.401196 20.340937 -25.037957 -2.998870 -8.074917 27.504565 0.918939 -5.423555 5.034822 -0.075500 -1.772400 4.877000 -0.667216 -7.732371 6.670758 0.788557 -4.144981 1.122604 30.305700 -29.638085 0.729666 8.129400 -15.351400 5.785000 -87.616766 -4.830643 27.291187 30.763221 -36.004367 -11.244494 -0.168100 -1.271555 13.832910 -7.125000 0.000000 0.000000 84.895133 -6.331107 -4.066596 -14.225283 18.276830 -2.600538 0.097511 -1.178504 26.614614 7.125000 0.000000 0.000000 
19.831107 18.260266 17.015099 2.568318 -1.034358 4.131278 -18.114966 3.428385 -1.605128 2.254161 8.644226 27.894155 1.538076 -9.795522 24.950071 0.761300 5.572200 15.548000 18.107424 18.985820 -24.788065 -3.029679 -8.157324 27.799826 0.675313 -4.096644 4.722940 -0.057900 -1.552100 4.269300 -0.156269 -7.931436 6.571809 0.776894 -4.226855 1.060340 29.669688 -29.875199 1.047240 7.915300 -15.433100 5.773700 -88.002182 -4.498187 26.538220 29.954078 -35.229152 -10.656023 -0.212544 -1.263352 14.337443 -7.125000 0.000000 0.000000 84.634138 -6.027599 -3.001501 -14.721337 18.980295 -2.793086 0.173180 -1.144645 25.365298 7.125000 0.000000 0.000000 
19.834812 18.274990 17.176084 2.298347 -0.841272 3.986081 -17.562880 3.354858 -2.935086 2.764389 9.501424 30.629805 1.784530 -8.687573 27.442358 0.672900 5.245500 14.610200 18.686381 17.704829 -24.555760 -3.073365 -8.258049 28.168524 0.406158 -2.572778 4.131969 -0.034900 -1.205100 3.313200 0.155879 -8.016033 6.816016 0.682015 -4.262828 1.212152 29.356200 -30.053609 1.128164 7.767300 -15.498000 5.758300 -88.142344 -4.576826 26.090704 28.997471 -34.282740 -9.974595 -0.268074 -1.252298 14.733955 -7.125000 0.000000 0.000000 84.612221 -5.247101 -2.432761 -15.217363 19.670749 -2.985594 0.247455 -1.079449 24.240132 7.125000 0.000000 0.000000 
19.835982 18.296441 17.336873 2.350615 -0.466450 3.966215 -17.304128 2.909086 -4.236542 3.288908 10.264705 33.132647 2.089673 -7.144996 30.062054 0.651600 5.163400 14.375100 18.805068 16.571895 -24.362985 -3.079570 -8.303303 28.303501 0.242095 -1.633662 3.571706 -0.038900 -1.272300 3.498200 0.253227 -8.113207 6.867306 0.652703 -4.309577 1.368496 29.352991 -30.255961 1.316822 7.736200 -15.579900 5.835300 -88.225646 -4.523858 25.762119 28.118250 -33.378785 -9.364630 -0.295702 -1.250070 14.850312 -7.125000 0.000000 0.000000 84.624536 -4.401055 -2.405121 -15.485220 20.038022 -3.094484 0.284583 -1.091968 23.395119 7.125000 0.000000 0.000000 
19.842905 18.302097 17.492300 2.196141 -0.146561 3.997809 -16.897785 2.323257 -5.508730 3.854610 11.008717 35.609581 2.419344 -5.411519 32.483926 0.701300 5.352900 14.917700 19.103275 15.672443 -24.080331 -3.081378 -8.318460 28.366021 0.127614 -0.973989 3.120536 -0.050900 -1.455300 4.002500 0.535726 -8.318275 6.614574 0.592244 -4.394349 1.253860 29.103567 -30.393585 1.594151 7.641600 -15.621700 5.845000 -88.458824 -4.131276 25.110926 27.388360 -32.610605 -8.861137 -0.321557 -1.266977 14.627739 -7.125000 0.000000 0.000000 84.403007 -3.990804 -1.583488 -15.772690 20.428868 -3.216127 0.324320 -1.093254 21.946152 7.125000 0.000000 0.000000 
19.800197 18.296929 17.648604 1.000338 -0.519196 3.758825 -15.327353 2.435176 -6.911202 4.407548 11.752288 38.131286 2.720711 -5.279532 34.432849 0.346200 3.780700 10.460500 20.691817 16.864994 -22.637076 -3.114466 -8.240874 28.354109 0.302156 -1.879946 2.502379 -0.045400 -1.374700 3.780500 1.643573 -8.304383 6.750467 0.722624 -4.367452 1.227208 29.290322 -30.313401 1.271673 7.737200 -15.636400 5.716500 -88.714010 -3.915075 24.203590 26.519880 -31.669576 -8.270801 -0.366964 -1.266699 14.280264 -7.125000 0.000000 0.000000 84.174851 -3.746254 0.092166 -16.401192 21.296808 -3.491236 0.383931 -1.020822 19.901964 7.125000 0.000000 0.000000 
19.777185 18.311555 17.792134 0.920520 -0.458617 3.713827 -14.950629 2.111753 -8.304595 4.972724 12.381247 40.584083 2.877146 -6.164175 35.617386 0.050400 1.448500 3.983900 20.936843 17.224306 -21.801631 -3.099102 -8.179853 28.220822 0.390305 -2.338548 1.987916 -0.042900 -1.337300 3.677400 1.999088 -8.339623 6.715950 0.968693 -4.381693 1.238403 29.603786 -30.404584 1.086184 7.851200 -15.726000 5.696400 -88.813698 -3.865915 23.599598 25.484094 -30.499534 -7.594841 -0.398222 -1.251395 14.250029 -7.125000 0.000000 0.000000 84.137793 -3.391490 0.978142 -17.069180 22.214000 -3.794302 0.408792 -0.938693 18.718247 7.125000 0.000000 0.000000 
19.763144 18.326473 17.940248 1.006192 -0.370891 3.641006 -14.773101 1.749509 -9.632274 5.583707 12.987651 43.053574 2.931415 -6.482467 36.109131 0.001300 0.230600 0.633700 21.005144 17.248610 -21.006453 -3.064933 -8.106817 28.020948 0.432164 -2.551111 1.484075 -0.069100 -1.695900 4.665800 1.990656 -8.239488 6.712228 1.030856 -4.326014 1.238466 29.666846 -30.713375 1.254296 7.809900 -15.864300 5.759900 -88.712167 -3.791139 23.467204 24.637019 -29.513477 -7.059929 -0.412774 -1.273079 14.278137 -7.125000 0.000000 0.000000 84.263144 -2.952711 1.318657 -17.622287 22.964449 -4.052730 0.413567 -0.863294 17.887832 7.125000 0.000000 0.000000 
19.750273 18.355921 18.098209 1.050420 -0.386023 3.574315 -14.634674 1.442324 -10.789966 6.179505 13.525441 45.334224 2.845562 -6.262342 35.621570 -0.000000 -0.025200 -0.069300 21.121150 17.242336 -20.135927 -3.021701 -8.021304 27.779634 0.451818 -2.649034 0.957906 -0.094700 -1.984400 5.462400 2.050695 -8.185952 6.740469 1.107683 -4.298465 1.310537 29.886451 -30.968002 1.403242 7.814800 -15.974900 5.853300 -88.751045 -3.643052 22.835474 23.953199 -28.698916 -6.629040 -0.440909 -1.282108 14.979282 -7.125000 0.000000 0.000000 84.271304 -2.528662 2.043743 -18.123468 23.626981 -4.293573 0.440040 -0.811203 16.757957 7.125000 0.000000 0.000000 
19.742570 18.368012 18.251783 1.100044 -0.351933 3.509523 -14.516727 1.068344 -11.868860 6.739984 13.998762 47.484345 2.598596 -6.535183 34.158397 0.000400 -0.126700 -0.348100 21.238128 16.935835 -19.377611 -2.968344 -7.930111 27.503875 0.418313 -2.476322 0.510820 -0.077200 -1.792300 4.931900 2.274885 -8.221853 6.640345 1.247402 -4.312343 1.230243 29.442286 -31.332226 2.435094 7.569900 -16.005100 6.175400 -88.904909 -3.351347 21.957600 23.260690 -27.858993 -6.203794 -0.457746 -1.277140 16.011792 -7.125000 0.000000 0.000000 84.114208 -2.289946 3.114269 -18.649426 24.320257 -4.557418 0.468789 -0.771902 15.584285 7.125000 0.000000 0.000000 
